# xmcd
#
# Track frame offsets:
#	150
#	12722
#	23111
#	34418
#	46723
#	55771
#	65056
#	77877
#	87393
#	95118
#	106131
#	116176
#	127283
#	141146
#	152191
#	164011
#	173646
#	183246
#	195566
#	202411
#
# Disc length: 2803 seconds
#
# Revision: 1
# Processed by: cddbd v1.4PL0 Copyright (c) Steve Scherf et al.
# Submitted via: audiograbber 1.81.00
#
DISCID=2b0af114
DTITLE=Jim Reeves - Hit Story Jim Reeves
DYEAR=2000
DGENRE=
TTITLE0=Bimbo
TTITLE1=He'll Have To Go
TTITLE2=Adios Amigo
TTITLE3=I Love You Because
TTITLE4=I Won't Forget You
TTITLE5=Heartache Following (There's A)
TTITLE6=Distant Drums
TTITLE7=I Won't Come In While He's There
TTITLE8=There Trying To Forget
TTITLE9=Moonlight and Roses
TTITLE10=Is It Really Over
TTITLE11=My Happiness
TTITLE12=I Fall To Pieces
TTITLE13=Moon River
TTITLE14=Aim I Losing You
TTITLE15=It Hurt So Much
TTITLE16=Snowflake
TTITLE17=Not Untill The Next Time
TTITLE18=Sarie Marais
TTITLE19=Jij Is Mij Liefling
EXTD=
EXTT0=
EXTT1=
EXTT2=
EXTT3=
EXTT4=
EXTT5=
EXTT6=
EXTT7=
EXTT8=
EXTT9=
EXTT10=
EXTT11=
EXTT12=
EXTT13=
EXTT14=
EXTT15=
EXTT16=
EXTT17=
EXTT18=
EXTT19=
PLAYORDER=
